#!OML:ASF F:\VICON\USERDATA\INSTALL\rory3\rory3.ASF
:FULLY-SPECIFIED
:DEGREES
1001
root 1.2257 16.4963 -2.04336 22.5082 -19.1483 5.38554
lowerback -23.139 -5.77051 -4.11647
upperback -18.2137 -7.20422 4.16496
thorax -6.51347 -3.21421 5.62337
lowerneck -1.33511 3.90552 0.204351
upperneck 34.4274 3.98605 3.78192
head 11.2983 2.10896 1.71567
rclavicle -6.95746e-014 -4.45278e-014
rhumerus -42.0554 -40.7106 30.4255
rradius 20.0896
rwrist -0.983565
rhand -19.803 17.6761
rfingers 7.12502
rthumb 6.53 -12.2032
lclavicle -6.95746e-014 -4.45278e-014
lhumerus -69.5174 -81.2399 113.915
lradius 75.2367
lwrist 30.7681
lhand 23.8563 20.5501
lfingers 7.12502
lthumb 48.1091 42.7119
rfemur -57.1254 -1.41492 25.0206
rtibia 40.7254
rfoot -36.2135 -36.4654
rtoes 38.641
lfemur -2.58106 -8.81436 -25.4244
ltibia 26.8962
lfoot 21.151 21.6598
ltoes -15.1185
1002
root 1.18103 16.5239 -1.92992 22.8143 -18.8169 5.17809
lowerback -23.6239 -5.85713 -3.5057
upperback -18.2703 -7.39977 4.16635
thorax -6.38332 -3.38105 5.20924
lowerneck -1.98335 4.23117 0.812634
upperneck 33.9443 4.40759 3.80608
head 11.2419 2.39431 1.66419
rclavicle -2.62396e-014 -7.95139e-015
rhumerus -42.4018 -41.3982 30.4176
rradius 19.7409
rwrist -0.119452
rhand -18.6833 16.6788
rfingers 7.12502
rthumb 7.61088 -13.1642
lclavicle -2.62396e-014 -7.95139e-015
lhumerus -48.6294 -81.66 92.2387
lradius 74.6605
lwrist 33.5706
lhand 28.4131 21.1202
lfingers 7.12502
lthumb 52.2747 41.0612
rfemur -56.7384 -2.3327 25.7252
rtibia 40.6356
rfoot -36.4547 -35.2681
rtoes 39.3302
lfemur -2.56615 -8.96527 -25.1813
ltibia 26.7824
lfoot 21.9275 23.0307
ltoes -14.7984
1003
root 1.13302 16.5413 -1.84444 23.1139 -18.7816 5.0563
lowerback -23.6022 -5.76698 -3.29177
upperback -18.8639 -7.33904 4.30986
thorax -7.12758 -3.33918 5.32582
lowerneck -0.839946 4.58025 0.0108392
upperneck 32.7442 4.77675 4.79827
head 10.4762 2.58571 2.12279
rclavicle -2.94201e-014 5.24792e-014
rhumerus -41.9309 -40.5521 30.2573
rradius 19.5047
rwrist 0.152601
rhand -17.6547 15.3027
rfingers 7.12502
rthumb 8.60362 -14.502
lclavicle -2.94201e-014 5.24792e-014
lhumerus -40.5935 -82.4952 83.8984
lradius 74.5969
lwrist 33.0887
lhand 27.971 20.8569
lfingers 7.12502
lthumb 51.8739 41.0372
rfemur -56.5259 -2.20296 25.8586
rtibia 40.5208
rfoot -37.0324 -35.4068
rtoes 39.1378
lfemur -2.81149 -8.92819 -25.0265
ltibia 26.7695
lfoot 22.2614 25.0788
ltoes -12.962
1004
root 1.08522 16.5571 -1.77302 23.4582 -18.8588 4.87587
lowerback -23.4483 -5.74036 -3.06836
upperback -19.3814 -7.36662 4.4593
thorax -7.84052 -3.34609 5.43395
lowerneck 0.19327 5.00237 -0.728263
upperneck 31.3441 5.20116 5.94522
head 9.66674 2.82494 2.60332
rclavicle -8.82604e-014 1.59028e-015
rhumerus -42.1583 -41.3095 30.8416
rradius 19.1761
rwrist 2.33639
rhand -16.3566 13.8484
rfingers 7.12502
rthumb 9.85615 -15.9009
lclavicle -8.82604e-014 1.59028e-015
lhumerus -29.4243 -83.2529 72.0484
lradius 74.9036
lwrist 33.5194
lhand 26.5724 21.6195
lfingers 7.12502
lthumb 50.6007 42.521
rfemur -56.3795 -1.53557 25.7495
rtibia 40.4576
rfoot -38.293 -35.5397
rtoes 38.9259
lfemur -3.17995 -8.63311 -24.7888
ltibia 26.8192
lfoot 22.1858 26.8726
ltoes -12.9224
1005
root 1.04089 16.5652 -1.69804 23.6782 -19.0251 4.80029
lowerback -23.7087 -5.61896 -2.85742
upperback -19.446 -7.24412 4.36335
thorax -7.84348 -3.31579 5.2197
lowerneck 0.206641 5.21072 -0.824982
upperneck 30.3865 5.4083 6.52488
head 9.27693 2.97997 2.7979
rclavicle 4.05521e-014 1.59028e-015
rhumerus -43.4783 -42.7102 32.2066
rradius 18.8804
rwrist 4.70991
rhand -14.8561 12.7425
rfingers 7.12502
rthumb 11.3035 -16.9329
lclavicle 4.05521e-014 1.59028e-015
lhumerus -10.0682 -83.1045 52.0032
lradius 74.7537
lwrist 33.5909
lhand 26.022 22.1336
lfingers 7.12502
lthumb 50.0977 43.3049
rfemur -56.1837 -1.19228 25.7292
rtibia 40.322
rfoot -38.0982 -35.4455
rtoes 38.4114
lfemur -3.44469 -8.22705 -24.7456
ltibia 27.0123
lfoot 22.2235 27.4796
ltoes -16.0118
1006
root 0.998134 16.5819 -1.62964 23.7307 -18.9098 5.00128
lowerback -23.1496 -5.76121 -3.06554
upperback -20.0357 -7.43243 4.50233
thorax -8.79362 -3.3475 5.57369
lowerneck 0.233047 5.42497 -0.57303
upperneck 30.27 5.76237 6.31633
head 9.23422 3.1581 2.70235
rclavicle -3.10104e-014 -7.95139e-015
rhumerus -42.9217 -42.3543 31.9036
rradius 18.7212
rwrist 5.21885
rhand -13.4848 11.5564
rfingers 7.12502
rthumb 12.6258 -18.042
lclavicle -3.10104e-014 -7.95139e-015
lhumerus -2.42561 -82.0806 43.9454
lradius 74.0352
lwrist 32.9207
lhand 26.6826 22.0196
lfingers 7.12502
lthumb 50.7013 42.8661
rfemur -55.8747 -0.906753 25.2815
rtibia 40.3196
rfoot -38.6899 -33.683
rtoes 42.2671
lfemur -3.61528 -8.18596 -24.8424
ltibia 27.0894
lfoot 22.2827 28.3687
ltoes -15.9417
1007
root 0.957963 16.5924 -1.57826 23.7902 -18.6029 5.12374
lowerback -21.662 -6.05776 -3.34743
upperback -21.2167 -7.86638 4.93656
thorax -10.9093 -3.41206 6.44514
lowerneck 0.55763 5.74729 -0.244781
upperneck 30.6847 6.30856 5.85038
head 9.34081 3.4043 2.52891
rclavicle -1.82882e-014 4.77083e-014
rhumerus -41.1898 -41.317 30.9002
rradius 18.6297
rwrist 5.62243
rhand -12.0108 10.4813
rfingers 7.12502
rthumb 14.0466 -19.024
lclavicle -1.82882e-014 4.77083e-014
lhumerus -0.610736 -81.8839 41.9165
lradius 73.5668
lwrist 32.1884
lhand 27.8359 21.2041
lfingers 7.12502
lthumb 51.7512 41.4563
rfemur -55.7616 -0.761087 25.1511
rtibia 40.2956
rfoot -39.4316 -35.2932
rtoes 41.1543
lfemur -3.79496 -8.27817 -24.7473
ltibia 27.1301
lfoot 22.115 29.7781
ltoes -13.2182
1008
root 0.923166 16.6042 -1.48739 23.8909 -18.2357 5.03632
lowerback -22.0483 -6.03069 -2.85149
upperback -21.2224 -7.8843 4.80372
thorax -10.792 -3.50347 5.98311
lowerneck 0.293375 5.85671 0.0483322
upperneck 29.9819 6.48106 5.84362
head 9.14106 3.52717 2.47248
rclavicle -1.03368e-014 -3.65764e-014
rhumerus -41.6409 -41.4421 31.0755
rradius 18.5164
rwrist 6.31368
rhand -11.0172 9.40933
rfingers 7.12502
rthumb 15.0039 -20.0271
lclavicle -1.03368e-014 -3.65764e-014
lhumerus 15.3722 -81.0751 25.5955
lradius 73.2681
lwrist 31.7905
lhand 28.1843 20.4396
lfingers 7.12502
lthumb 52.0674 40.5051
rfemur -55.4776 -1.76023 25.83
rtibia 40.2887
rfoot -37.9448 -34.6207
rtoes 40.31
lfemur -3.72876 -8.46693 -24.5788
ltibia 27.1703
lfoot 22.1464 30.4239
ltoes -13.8812
1009
root 0.884951 16.6164 -1.41928 24.1675 -18.2994 5.00975
lowerback -22.6806 -5.84544 -2.816
upperback -21.0173 -7.62169 4.67526
thorax -10.2639 -3.40585 5.76809
lowerneck -0.0253305 5.81604 -0.0902111
upperneck 28.8627 6.46917 5.93932
head 8.78715 3.52756 2.49655
rclavicle -7.71285e-014 -3.18055e-014
rhumerus -41.9682 -40.6332 30.8727
rradius 18.4633
rwrist 5.54794
rhand -10.1481 7.86127
rfingers 7.12502
rthumb 15.841 -21.5107
lclavicle -7.71285e-014 -3.18055e-014
lhumerus 28.6204 -79.1328 12.3013
lradius 72.7642
lwrist 31.8443
lhand 27.1605 20.8915
lfingers 7.12502
lthumb 51.1369 41.4962
rfemur -55.4374 -1.78775 25.9388
rtibia 40.2534
rfoot -39.1528 -35.1667
rtoes 37.9405
lfemur -4.0173 -8.37925 -24.5527
ltibia 27.2474
lfoot 23.0339 30.7374
ltoes -14.5471
1010
root 0.846659 16.6107 -1.37782 24.412 -18.6784 5.06208
lowerback -22.8811 -5.50919 -2.92056
upperback -20.9062 -7.17768 4.23487
thorax -10.1231 -3.20843 5.37646
lowerneck -0.645372 5.7065 0.257468
upperneck 28.1822 6.23517 6.27135
head 8.66848 3.49513 2.53353
rclavicle 1.43125e-014 4.77083e-014
rhumerus -43.3261 -40.2763 31.57
rradius 18.4578
rwrist 5.75319
rhand -8.36266 6.28766
rfingers 7.12502
rthumb 17.5599 -22.9393
lclavicle 1.43125e-014 4.77083e-014
lhumerus 39.6395 -76.894 1.00086
lradius 72.0682
lwrist 31.9462
lhand 27.0905 21.0723
lfingers 7.12502
lthumb 51.0732 41.7128
rfemur -55.569 -1.05389 25.6275
rtibia 40.1956
rfoot -39.3999 -36.2831
rtoes 37.0474
lfemur -4.26362 -8.06819 -24.7294
ltibia 27.2584
lfoot 22.2851 32.3873
ltoes -10.4966
